<svg width="23" height="26" viewBox="0 0 23 26" fill="none" xmlns="http://www.w3.org/2000/svg">
<path d="M18.75 8.66659H21.1667C21.4871 8.66659 21.7945 8.79389 22.0211 9.0205C22.2477 9.2471 22.375 9.55445 22.375 9.87492V24.3749C22.375 24.6954 22.2477 25.0027 22.0211 25.2293C21.7945 25.4559 21.4871 25.5833 21.1667 25.5833H1.83333C1.51286 25.5833 1.20552 25.4559 0.978913 25.2293C0.752306 25.0027 0.625 24.6954 0.625 24.3749V9.87492C0.625 9.55445 0.752306 9.2471 0.978913 9.0205C1.20552 8.79389 1.51286 8.66659 1.83333 8.66659H4.25V7.45825C4.25 5.53543 5.01384 3.69137 6.37348 2.33173C7.73312 0.972089 9.57718 0.208252 11.5 0.208252C13.4228 0.208252 15.2669 0.972089 16.6265 2.33173C17.9862 3.69137 18.75 5.53543 18.75 7.45825V8.66659ZM16.3333 8.66659V7.45825C16.3333 6.17637 15.8241 4.94699 14.9177 4.04057C14.0113 3.13414 12.7819 2.62492 11.5 2.62492C10.2181 2.62492 8.98874 3.13414 8.08232 4.04057C7.17589 4.94699 6.66667 6.17637 6.66667 7.45825V8.66659H16.3333ZM10.2917 15.9166V18.3333H12.7083V15.9166H10.2917ZM5.45833 15.9166V18.3333H7.875V15.9166H5.45833ZM15.125 15.9166V18.3333H17.5417V15.9166H15.125Z" fill="#22668A"/>
</svg>
