<svg width="214" height="177" viewBox="0 0 214 177" fill="none" xmlns="http://www.w3.org/2000/svg">
<path d="M143.81 30.1901C138.141 24.4759 131.394 19.943 123.961 16.8541C116.528 13.7652 108.556 12.1815 100.506 12.1949C92.455 12.1823 84.4812 13.7662 77.0462 16.855C69.6111 19.9439 62.8623 24.4763 57.1901 30.1901C33.3087 54.0654 33.3087 92.9285 57.1901 116.81C62.8624 122.525 69.6121 127.059 77.0484 130.148C84.4847 133.236 92.4599 134.82 100.512 134.805C108.561 134.819 116.533 133.237 123.966 130.149C131.399 127.061 138.146 122.529 143.816 116.816C167.697 92.9407 167.697 54.0776 143.81 30.1901V30.1901ZM101.609 24.5H99.4097C99.7834 24.4939 100.139 24.4449 100.512 24.4449C100.886 24.4449 101.235 24.4939 101.609 24.5ZM138.738 104.125H125L117.295 119.535C111.92 121.521 106.236 122.543 100.506 122.555C94.7653 122.545 89.0714 121.52 83.6869 119.529L76 104.186H62.3106C57.2602 97.9074 53.8447 90.4746 52.3697 82.5527L63.75 67.375L56.302 52.4729C58.6785 47.4172 61.9088 42.8091 65.8509 38.8509C71.3682 33.3142 78.1308 29.1789 85.5734 26.7908L100.5 36.75L115.433 26.7969C122.873 29.1868 129.635 33.3195 135.155 38.8509C139.093 42.8044 142.321 47.4061 144.698 52.4545L137.25 67.375L148.63 82.5527C147.162 90.4491 143.764 97.8598 138.738 104.125Z" fill="#22668A"/>
<path d="M79.0625 67.375L88.25 91.875H112.75L121.938 67.375L100.5 52.0625L79.0625 67.375Z" fill="#22668A"/>
<path d="M12.69 169.36C11.406 169.36 10.146 169.198 8.91 168.874C7.674 168.55 6.54 168.064 5.508 167.416C4.488 166.768 3.648 165.958 2.988 164.986C2.328 164.014 1.932 162.874 1.8 161.566H7.182C7.446 162.742 8.07 163.648 9.054 164.284C10.05 164.92 11.256 165.238 12.672 165.238C14.1 165.238 15.33 164.968 16.362 164.428C17.406 163.888 17.928 163.066 17.928 161.962C17.928 160.978 17.508 160.246 16.668 159.766C15.828 159.286 14.778 158.92 13.518 158.668L9.018 157.75C7.05 157.378 5.49 156.598 4.338 155.41C3.186 154.222 2.592 152.626 2.556 150.622C2.544 148.99 2.976 147.58 3.852 146.392C4.74 145.192 5.94 144.268 7.452 143.62C8.976 142.972 10.68 142.648 12.564 142.648C14.808 142.648 16.692 143.002 18.216 143.71C19.752 144.406 20.916 145.354 21.708 146.554C22.512 147.742 22.926 149.068 22.95 150.532H17.676C17.532 149.164 16.998 148.204 16.074 147.652C15.15 147.1 14.01 146.824 12.654 146.824C11.25 146.824 10.134 147.124 9.306 147.724C8.478 148.312 8.064 149.074 8.064 150.01C8.064 150.766 8.31 151.378 8.802 151.846C9.306 152.314 10.254 152.698 11.646 152.998L16.11 153.916C17.694 154.228 18.96 154.69 19.908 155.302C20.856 155.914 21.564 156.604 22.032 157.372C22.512 158.14 22.824 158.926 22.968 159.73C23.124 160.522 23.202 161.254 23.202 161.926C23.202 163.33 22.764 164.596 21.888 165.724C21.012 166.84 19.782 167.728 18.198 168.388C16.626 169.036 14.79 169.36 12.69 169.36ZM34.992 169.36C33.168 169.36 31.578 168.97 30.222 168.19C28.878 167.41 27.834 166.306 27.09 164.878C26.358 163.45 25.992 161.758 25.992 159.802C25.992 157.846 26.358 156.136 27.09 154.672C27.834 153.208 28.878 152.068 30.222 151.252C31.578 150.436 33.174 150.028 35.01 150.028C36.846 150.028 38.436 150.43 39.78 151.234C41.124 152.038 42.162 153.172 42.894 154.636C43.626 156.088 43.992 157.81 43.992 159.802C43.992 161.674 43.632 163.33 42.912 164.77C42.204 166.198 41.178 167.32 39.834 168.136C38.502 168.952 36.888 169.36 34.992 169.36ZM35.01 165.454C35.934 165.454 36.678 165.184 37.242 164.644C37.806 164.104 38.214 163.396 38.466 162.52C38.73 161.632 38.862 160.666 38.862 159.622C38.862 158.638 38.742 157.714 38.502 156.85C38.262 155.974 37.86 155.266 37.296 154.726C36.744 154.174 35.982 153.898 35.01 153.898C34.086 153.898 33.336 154.156 32.76 154.672C32.196 155.188 31.782 155.878 31.518 156.742C31.254 157.606 31.122 158.566 31.122 159.622C31.122 160.594 31.242 161.53 31.482 162.43C31.722 163.318 32.124 164.044 32.688 164.608C33.252 165.172 34.026 165.454 35.01 165.454ZM55.4701 150.028C57.0301 150.028 58.3741 150.346 59.5021 150.982C60.6421 151.618 61.5361 152.476 62.1841 153.556C62.8441 154.636 63.2221 155.842 63.3181 157.174H58.9441C58.8241 156.43 58.4881 155.722 57.9361 155.05C57.3961 154.366 56.5861 154.024 55.5061 154.024C54.2821 154.024 53.2861 154.498 52.5181 155.446C51.7621 156.382 51.3841 157.81 51.3841 159.73C51.3841 161.554 51.7561 162.994 52.5001 164.05C53.2441 165.106 54.2821 165.634 55.6141 165.634C56.3221 165.634 56.9101 165.46 57.3781 165.112C57.8581 164.764 58.2301 164.35 58.4941 163.87C58.7581 163.378 58.9261 162.922 58.9981 162.502H63.2641C63.1801 163.786 62.8081 164.95 62.1481 165.994C61.4881 167.026 60.5881 167.848 59.4481 168.46C58.3201 169.06 56.9941 169.36 55.4701 169.36C53.7421 169.36 52.2001 168.976 50.8441 168.208C49.4881 167.44 48.4201 166.342 47.6401 164.914C46.8721 163.474 46.4881 161.758 46.4881 159.766C46.4881 157.846 46.8601 156.154 47.6041 154.69C48.3481 153.226 49.3921 152.086 50.7361 151.27C52.0801 150.442 53.6581 150.028 55.4701 150.028ZM74.9115 150.028C76.4715 150.028 77.8155 150.346 78.9435 150.982C80.0835 151.618 80.9775 152.476 81.6255 153.556C82.2855 154.636 82.6635 155.842 82.7595 157.174H78.3855C78.2655 156.43 77.9295 155.722 77.3775 155.05C76.8375 154.366 76.0275 154.024 74.9475 154.024C73.7235 154.024 72.7275 154.498 71.9595 155.446C71.2035 156.382 70.8255 157.81 70.8255 159.73C70.8255 161.554 71.1975 162.994 71.9415 164.05C72.6855 165.106 73.7235 165.634 75.0555 165.634C75.7635 165.634 76.3515 165.46 76.8195 165.112C77.2995 164.764 77.6715 164.35 77.9355 163.87C78.1995 163.378 78.3675 162.922 78.4395 162.502H82.7055C82.6215 163.786 82.2495 164.95 81.5895 165.994C80.9295 167.026 80.0295 167.848 78.8895 168.46C77.7615 169.06 76.4355 169.36 74.9115 169.36C73.1835 169.36 71.6415 168.976 70.2855 168.208C68.9295 167.44 67.8615 166.342 67.0815 164.914C66.3135 163.474 65.9295 161.758 65.9295 159.766C65.9295 157.846 66.3015 156.154 67.0455 154.69C67.7895 153.226 68.8335 152.086 70.1775 151.27C71.5215 150.442 73.0995 150.028 74.9115 150.028ZM90.6989 160.9C90.6869 162.328 91.0289 163.462 91.7249 164.302C92.4209 165.142 93.3989 165.562 94.6589 165.562C95.5589 165.562 96.3449 165.37 97.0169 164.986C97.7009 164.602 98.1749 163.972 98.4389 163.096H103.173C102.969 164.416 102.441 165.544 101.589 166.48C100.749 167.416 99.7289 168.13 98.5289 168.622C97.3289 169.114 96.0809 169.36 94.7849 169.36C92.9369 169.36 91.3169 168.976 89.9249 168.208C88.5329 167.428 87.4469 166.33 86.6669 164.914C85.8869 163.498 85.4969 161.83 85.4969 159.91C85.4969 158.05 85.8509 156.376 86.5589 154.888C87.2669 153.388 88.2929 152.206 89.6369 151.342C90.9929 150.466 92.6189 150.028 94.5149 150.028C96.4109 150.028 98.0009 150.43 99.2849 151.234C100.581 152.026 101.553 153.136 102.201 154.564C102.861 155.98 103.191 157.618 103.191 159.478V160.9H90.6989ZM90.6809 157.768H98.2769C98.2769 156.64 97.9649 155.68 97.3409 154.888C96.7169 154.096 95.7749 153.7 94.5149 153.7C93.6989 153.7 93.0029 153.898 92.4269 154.294C91.8629 154.69 91.4309 155.2 91.1309 155.824C90.8309 156.436 90.6809 157.084 90.6809 157.768ZM106.84 169V150.388H111.898V154.798C112.342 153.37 113.068 152.218 114.076 151.342C115.084 150.466 116.326 150.028 117.802 150.028C118.198 150.028 118.468 150.064 118.612 150.136V155.14C118.504 155.104 118.372 155.08 118.216 155.068C118.072 155.044 117.94 155.026 117.82 155.014C115.744 154.834 114.268 155.11 113.392 155.842C112.528 156.574 112.096 157.564 112.096 158.812V169H106.84ZM131.905 169.36C130.621 169.36 129.361 169.198 128.125 168.874C126.889 168.55 125.755 168.064 124.723 167.416C123.703 166.768 122.863 165.958 122.203 164.986C121.543 164.014 121.147 162.874 121.015 161.566H126.397C126.661 162.742 127.285 163.648 128.269 164.284C129.265 164.92 130.471 165.238 131.887 165.238C133.315 165.238 134.545 164.968 135.577 164.428C136.621 163.888 137.143 163.066 137.143 161.962C137.143 160.978 136.723 160.246 135.883 159.766C135.043 159.286 133.993 158.92 132.733 158.668L128.233 157.75C126.265 157.378 124.705 156.598 123.553 155.41C122.401 154.222 121.807 152.626 121.771 150.622C121.759 148.99 122.191 147.58 123.067 146.392C123.955 145.192 125.155 144.268 126.667 143.62C128.191 142.972 129.895 142.648 131.779 142.648C134.023 142.648 135.907 143.002 137.431 143.71C138.967 144.406 140.131 145.354 140.923 146.554C141.727 147.742 142.141 149.068 142.165 150.532H136.891C136.747 149.164 136.213 148.204 135.289 147.652C134.365 147.1 133.225 146.824 131.869 146.824C130.465 146.824 129.349 147.124 128.521 147.724C127.693 148.312 127.279 149.074 127.279 150.01C127.279 150.766 127.525 151.378 128.017 151.846C128.521 152.314 129.469 152.698 130.861 152.998L135.325 153.916C136.909 154.228 138.175 154.69 139.123 155.302C140.071 155.914 140.779 156.604 141.247 157.372C141.727 158.14 142.039 158.926 142.183 159.73C142.339 160.522 142.417 161.254 142.417 161.926C142.417 163.33 141.979 164.596 141.103 165.724C140.227 166.84 138.997 167.728 137.413 168.388C135.841 169.036 134.005 169.36 131.905 169.36ZM157.238 154.042H153.098L153.134 163.96C153.134 164.644 153.266 165.076 153.53 165.256C153.794 165.424 154.214 165.508 154.79 165.508H157.292V168.748C157.04 168.856 156.662 168.958 156.158 169.054C155.654 169.15 154.946 169.198 154.034 169.198C152.402 169.198 151.136 168.988 150.236 168.568C149.348 168.148 148.73 167.56 148.382 166.804C148.034 166.048 147.86 165.172 147.86 164.176V154.042H144.836V150.388H148.04L149.354 144.772H153.098V150.37H157.238V154.042ZM168.515 169.36C166.691 169.36 165.101 168.97 163.745 168.19C162.401 167.41 161.357 166.306 160.613 164.878C159.881 163.45 159.515 161.758 159.515 159.802C159.515 157.846 159.881 156.136 160.613 154.672C161.357 153.208 162.401 152.068 163.745 151.252C165.101 150.436 166.697 150.028 168.533 150.028C170.369 150.028 171.959 150.43 173.303 151.234C174.647 152.038 175.685 153.172 176.417 154.636C177.149 156.088 177.515 157.81 177.515 159.802C177.515 161.674 177.155 163.33 176.435 164.77C175.727 166.198 174.701 167.32 173.357 168.136C172.025 168.952 170.411 169.36 168.515 169.36ZM168.533 165.454C169.457 165.454 170.201 165.184 170.765 164.644C171.329 164.104 171.737 163.396 171.989 162.52C172.253 161.632 172.385 160.666 172.385 159.622C172.385 158.638 172.265 157.714 172.025 156.85C171.785 155.974 171.383 155.266 170.819 154.726C170.267 154.174 169.505 153.898 168.533 153.898C167.609 153.898 166.859 154.156 166.283 154.672C165.719 155.188 165.305 155.878 165.041 156.742C164.777 157.606 164.645 158.566 164.645 159.622C164.645 160.594 164.765 161.53 165.005 162.43C165.245 163.318 165.647 164.044 166.211 164.608C166.775 165.172 167.549 165.454 168.533 165.454ZM181.02 169V150.388H186.078V154.798C186.522 153.37 187.248 152.218 188.256 151.342C189.264 150.466 190.506 150.028 191.982 150.028C192.378 150.028 192.648 150.064 192.792 150.136V155.14C192.684 155.104 192.552 155.08 192.396 155.068C192.252 155.044 192.12 155.026 192 155.014C189.924 154.834 188.448 155.11 187.572 155.842C186.708 156.574 186.276 157.564 186.276 158.812V169H181.02ZM199.859 160.9C199.847 162.328 200.189 163.462 200.885 164.302C201.581 165.142 202.559 165.562 203.819 165.562C204.719 165.562 205.505 165.37 206.177 164.986C206.861 164.602 207.335 163.972 207.599 163.096H212.333C212.129 164.416 211.601 165.544 210.749 166.48C209.909 167.416 208.889 168.13 207.689 168.622C206.489 169.114 205.241 169.36 203.945 169.36C202.097 169.36 200.477 168.976 199.085 168.208C197.693 167.428 196.607 166.33 195.827 164.914C195.047 163.498 194.657 161.83 194.657 159.91C194.657 158.05 195.011 156.376 195.719 154.888C196.427 153.388 197.453 152.206 198.797 151.342C200.153 150.466 201.779 150.028 203.675 150.028C205.571 150.028 207.161 150.43 208.445 151.234C209.741 152.026 210.713 153.136 211.361 154.564C212.021 155.98 212.351 157.618 212.351 159.478V160.9H199.859ZM199.841 157.768H207.437C207.437 156.64 207.125 155.68 206.501 154.888C205.877 154.096 204.935 153.7 203.675 153.7C202.859 153.7 202.163 153.898 201.587 154.294C201.023 154.69 200.591 155.2 200.291 155.824C199.991 156.436 199.841 157.084 199.841 157.768Z" fill="#22668A"/>
</svg>
